# xmcd
# Track frame offsets:
# 150
# 16650
# 34799
# 50324
# 72372
# 87142
# 102905
# 121196
# 138833
#
# Disc length: 2057 seconds
# Revision: 0
# Processed by: cddbd v1.5.1PL0 Copyright (c) Steve Scherf et al.
# Submitted via: VisiTrax 2.9.10.228 - For more info visit www.synapsa.com
#
DISCID=67080709
DTITLE=Various Artist - Hits Monthly Nashville  PHN0307
DYEAR=1900
DGENRE=Karaoke
TTITLE0=Hanson, Jennifer - This Far Gone
TTITLE1=Brooks and Dunn - Red Dirt Road
TTITLE2=Dalley, Amy - Love's Got An Attitude
TTITLE3=Twain, Shania - Forever And For Always
TTITLE4=Strait, George - Tell Me Something Bad About Tulsa
TTITLE5=Greenwood, Lee - God Bless The USA 2003
TTITLE6=Wills, Mark - When You Think Of Me
TTITLE7=Bentley, Dierks - What Was I Thinkin'
TTITLE8=Shelton, Blake - Heavy Liftin'
EXTD=
EXTT0=
EXTT1=
EXTT2=
EXTT3=
EXTT4=
EXTT5=
EXTT6=
EXTT7=
EXTT8=
PLAYORDER=
